<?xml version="1.0" encoding="iso-8859-1"?>
<!-- Generator: Adobe Illustrator 19.0.0, SVG Export Plug-In . SVG Version: 6.00 Build 0)  -->
<svg version="1.1" id="Layer_1" xmlns="http://www.w3.org/2000/svg" xmlns:xlink="http://www.w3.org/1999/xlink" x="0px" y="0px"
	 viewBox="0 0 512 512" style="enable-background:new 0 0 512 512;" xml:space="preserve">
<g>
	<g>
		<path d="M418.121,93.867l0.026-85.333c0-2.261-0.913-4.437-2.517-6.033c-1.596-1.604-3.78-2.5-6.042-2.5h-93.867
			c-3.029,0-5.837,1.604-7.364,4.215l-47.65,76.194L250.15,93.867H102.387c-4.71,0-8.533,3.814-8.533,8.533v128.051
			c0,4.719,3.823,8.533,8.533,8.533h81.664l1.758,1.852L94.878,409.199c-0.666,1.254-1.024,2.645-1.024,4.062v90.206
			c0,4.719,3.849,8.533,8.559,8.533h93.841c3.021,0,5.82-1.596,7.356-4.198l50.842-89.634l5.982-8.567h149.035
			c4.719,0,8.533-3.814,8.533-8.533V281.6c0-4.719-3.814-8.533-8.533-8.533h-81.681l-1.596-1.596l90.957-173.645
			C417.788,96.606,418.121,95.249,418.121,93.867z"/>
	</g>
</g>
<g>
</g>
<g>
</g>
<g>
</g>
<g>
</g>
<g>
</g>
<g>
</g>
<g>
</g>
<g>
</g>
<g>
</g>
<g>
</g>
<g>
</g>
<g>
</g>
<g>
</g>
<g>
</g>
<g>
</g>
</svg>
