<svg id="Warstwa_1" data-name="Warstwa 1" xmlns="http://www.w3.org/2000/svg" viewBox="0 0 761.69 761.69"><defs><style>.cls-1{fill:#3298dc;}</style></defs><title>pixivB</title><path class="cls-1" d="M676.74,503c-10.65,67-59.38,115.81-126.46,126.46-47.26,7.62-91.4,0-137.1-15.23-12.2-4.59-16.79-10.65-15.23-24.41,1.55-35.05,0-70.11,0-106.64V373.54c0-7.62,1.55-15.23,9.17-19.82,60.93-30.47,123.42-42.67,187.39-13.68C652.34,369,685.84,439.06,676.74,503Zm204.1,15.23c0,210.24-170.6,380.84-380.84,380.84S119.16,728.51,119.16,518.26,289.76,137.42,500,137.42,880.84,308,880.84,518.26ZM696.48,361.34c-39.64-44.15-93-62.49-150.78-65.52-99-6.06-184.36,30.47-259,91.4-41.12,33.5-41.12,33.5-12.2,74.61,3,4.59,4.59,12.2,12.2,9.17,6.06-3,6.06-9.17,6.06-15.23,0-7.62-1.55-15.23,4.59-22.85,12.2-16.79,25.88-30.47,45.7-45.7V702.55c0,9.17-3,13.68-10.65,16.79-6.06,1.55-12.2,6.06-10.65,13.68s9.17,6.06,15.23,6.06h70.11c6.06,0,12.2,1.55,13.68-6.06s-4.59-9.17-10.65-12.2c-4.59-3-12.2-3-12.2-12.2V643.09h4.59c6.06,1.55,13.68,4.59,19.82,6.06,73.14,21.3,147.75,24.41,217.86-9.17C752.91,586.82,780.27,452.74,696.48,361.34Z" transform="translate(-119.16 -137.42)"/></svg>